<svg width="400" height="400" viewBox="0 0 400 400" fill="none" xmlns="http://www.w3.org/2000/svg">
<path d="M400.006 200.003C400.006 310.462 310.462 400.006 200.003 400.006C89.5449 400.006 0 310.462 0 200.003C0 89.5445 89.5449 0 200.003 0C251.916 23.4976 306.224 110.931 328.966 138.253C351.71 165.576 410.575 200.003 381.726 127.784C394.026 147.304 400.006 179.692 400.006 200.003Z" fill="url(#paint0_radial_1_30)"/>
<path d="M400.006 200.003C400.006 310.462 310.462 400.006 200.003 400.006C89.5449 400.006 0 310.462 0 200.003C0 89.5445 89.5449 0 200.003 0C251.916 23.4976 306.224 110.931 328.966 138.253C351.71 165.576 410.575 200.003 381.726 127.784C394.026 147.304 400.006 179.692 400.006 200.003Z" fill="url(#paint1_linear_1_30)"/>
<path d="M400.006 200.003C400.006 310.462 310.462 400.006 200.003 400.006C89.5449 400.006 0 310.462 0 200.003C0 89.5445 89.5449 0 200.003 0C251.916 23.4976 306.224 110.931 328.966 138.253C351.71 165.576 410.575 200.003 381.726 127.784C394.026 147.304 400.006 179.692 400.006 200.003Z" fill="url(#paint2_radial_1_30)"/>
<path d="M400.006 200.003C400.006 310.462 310.462 400.006 200.003 400.006C89.5449 400.006 0 310.462 0 200.003C0 89.5445 89.5449 0 200.003 0C251.916 23.4976 306.224 110.931 328.966 138.253C351.71 165.576 410.575 200.003 381.726 127.784C394.026 147.304 400.006 179.692 400.006 200.003Z" fill="url(#paint3_radial_1_30)"/>
<path d="M400.006 200.003C400.006 310.462 310.462 400.006 200.003 400.006C89.5449 400.006 0 310.462 0 200.003C0 89.5445 89.5449 0 200.003 0C251.916 23.4976 306.224 110.931 328.966 138.253C351.71 165.576 410.575 200.003 381.726 127.784C394.026 147.304 400.006 179.692 400.006 200.003Z" fill="url(#paint4_linear_1_30)" fill-opacity="0.3"/>
<path d="M381.846 127.976C362.14 94.6058 321.308 69.9617 272.233 63.7947C286.363 80.9044 299.218 98.4534 309.841 112.96C317.493 123.405 323.987 132.273 328.967 138.254C351.711 165.574 410.577 200.003 381.727 127.785C381.766 127.849 381.806 127.912 381.846 127.976Z" fill="url(#paint5_radial_1_30)"/>
<path d="M381.846 127.976C362.14 94.6058 321.308 69.9617 272.233 63.7947C286.363 80.9044 299.218 98.4534 309.841 112.96C317.493 123.405 323.987 132.273 328.967 138.254C351.711 165.574 410.577 200.003 381.727 127.785C381.766 127.849 381.806 127.912 381.846 127.976Z" fill="url(#paint6_linear_1_30)"/>
<path fill-rule="evenodd" clip-rule="evenodd" d="M133.635 336.15C133.635 336.15 148.015 337.167 166.514 335.537C174.005 334.876 202.449 332.083 223.714 327.419C223.714 327.419 249.642 321.87 263.513 316.758C278.027 311.41 285.925 306.87 289.48 300.438C289.325 299.12 290.574 294.446 283.881 291.639C266.769 284.462 246.924 285.76 207.654 284.927C164.105 283.431 149.618 276.141 141.901 270.271C134.501 264.315 138.222 247.838 169.93 233.324C185.903 225.595 248.516 211.332 248.516 211.332C227.429 200.909 188.108 182.586 180.025 178.629C172.936 175.159 161.592 169.934 159.133 163.612C156.345 157.542 165.717 152.314 170.953 150.817C187.814 145.954 211.617 142.931 233.281 142.591C244.17 142.421 245.938 141.72 245.938 141.72C260.963 139.228 270.854 128.948 266.733 112.668C263.033 96.0501 243.521 86.2857 224.979 89.666C207.518 92.8493 165.432 105.074 165.432 105.074C217.453 104.624 226.16 105.492 230.049 110.929C232.345 114.14 229.005 118.543 215.131 120.808C200.027 123.275 168.629 126.246 168.629 126.246C138.509 128.035 117.292 128.155 110.929 141.627C106.771 150.429 115.362 158.211 119.127 163.082C135.038 180.777 158.021 190.32 172.815 197.348C178.381 199.992 194.713 204.986 194.713 204.986C146.72 202.346 112.099 217.083 91.791 234.051C68.8218 255.296 78.9827 280.62 126.04 296.212C153.834 305.422 167.618 309.753 209.078 306.02C233.497 304.704 237.347 305.487 237.59 307.491C237.933 310.312 210.467 317.32 202.968 319.483C183.892 324.985 133.885 336.096 133.635 336.15Z" fill="white"/>
<defs>
<radialGradient id="paint0_radial_1_30" cx="0" cy="0" r="1" gradientUnits="userSpaceOnUse" gradientTransform="translate(134.585 165.491) rotate(49.385) scale(308.942 308.942)">
<stop stop-color="#8DFDFD"/>
<stop offset="0.255" stop-color="#87FBFB"/>
<stop offset="0.395" stop-color="#74D6F4"/>
<stop offset="1" stop-color="#0038FF"/>
</radialGradient>
<linearGradient id="paint1_linear_1_30" x1="100.563" y1="80.5471" x2="348.494" y2="421.258" gradientUnits="userSpaceOnUse">
<stop stop-color="#8381C5"/>
<stop offset="0.566394" stop-color="#7E55B3" stop-opacity="0.996078"/>
<stop offset="1" stop-color="#A52ECB" stop-opacity="0.992157"/>
</linearGradient>
<radialGradient id="paint2_radial_1_30" cx="0" cy="0" r="1" gradientUnits="userSpaceOnUse" gradientTransform="translate(137.502 200.003) rotate(132.274) scale(148.663)">
<stop stop-color="#0500FF" stop-opacity="0"/>
<stop offset="1" stop-color="#0100FF" stop-opacity="0.15"/>
</radialGradient>
<radialGradient id="paint3_radial_1_30" cx="0" cy="0" r="1" gradientUnits="userSpaceOnUse" gradientTransform="translate(157.501 155) rotate(42.678) scale(261.848 261.848)">
<stop offset="0.9999" stop-color="#FF00E5" stop-opacity="0"/>
<stop offset="1" stop-color="#FF00E5" stop-opacity="0.65"/>
</radialGradient>
<linearGradient id="paint4_linear_1_30" x1="400.006" y1="210.003" x2="232.503" y2="215.003" gradientUnits="userSpaceOnUse">
<stop stop-color="#FD3AF5"/>
<stop offset="0.0001" stop-color="#FD3AF5" stop-opacity="0"/>
</linearGradient>
<radialGradient id="paint5_radial_1_30" cx="0" cy="0" r="1" gradientUnits="userSpaceOnUse" gradientTransform="translate(202.504 265.004) rotate(-36.2538) scale(232.517 205.735)">
<stop offset="0.777466" stop-color="#001AFF"/>
<stop offset="1" stop-color="#8ACEFF"/>
</radialGradient>
<linearGradient id="paint6_linear_1_30" x1="378.632" y1="148.478" x2="318.635" y2="68.3322" gradientUnits="userSpaceOnUse">
<stop stop-color="#411F5D"/>
<stop offset="1" stop-color="#5B2A85"/>
</linearGradient>
</defs>
</svg>
